<svg xmlns="http://www.w3.org/2000/svg" viewBox="0 0 192 192" role="img" aria-labelledby="title desc">
  <title id="title">PawCamp App Icon</title>
  <desc id="desc">Rounded green app icon with a paw and campsite mark.</desc>
  <defs>
    <linearGradient id="bg" x1="0%" y1="0%" x2="100%" y2="100%">
      <stop offset="0%" stop-color="#3d8366" />
      <stop offset="100%" stop-color="#1f5846" />
    </linearGradient>
  </defs>
  <rect width="192" height="192" rx="44" fill="url(#bg)" />
  <circle cx="96" cy="96" r="56" fill="#f6f4ee" opacity="0.16" />
  <path d="M96 56c8 0 14 6 14 14s-6 14-14 14-14-6-14-14 6-14 14-14Zm-30 18c7 0 12 5 12 12s-5 12-12 12-12-5-12-12 5-12 12-12Zm60 0c7 0 12 5 12 12s-5 12-12 12-12-5-12-12 5-12 12-12ZM74 100c11 0 22 7 22 18v10H68v-10c0-11 6-18 6-18Zm44 0c0 0 6 7 6 18v10H96v-10c0-11 11-18 22-18Z" fill="#fffdf9" />
  <path d="M70 142l26-38 26 38H70Z" fill="#fff0d8" />
  <path d="M96 118l9 13H87l9-13Z" fill="#2c6c56" />
</svg>
